/* XPM */
static char * latex_xpm[] = {
"33 33 215 2",
"       c #9C9C9A9A9C9C",
".      c #94949A9A8C8C",
"X      c #949496969C9C",
"o      c #9C9C9A9A9494",
"O      c #9C9C96969494",
"+      c #9C9C9E9E9C9C",
"@      c #A4A49E9E9C9C",
"#      c #A4A4A2A29C9C",
"$      c #ACACA6A6A4A4",
"%      c #ACACAAAAA4A4",
"&      c #B4B4AAAAACAC",
"*      c #B4B4AAAAA4A4",
"=      c #ACACAAAAACAC",
"-      c #B4B4B2B2ACAC",
";      c #B4B4AEAEB4B4",
":      c #B4B4B2B2B4B4",
">      c #B4B4B6B6B4B4",
",      c #BCBCBABABCBC",
"<      c #BCBCBEBEBCBC",
"1      c #C4C4C2C2C4C4",
"2      c #949492929494",
"3      c #9C9C96969C9C",
"4      c #B4B4AEAEACAC",
"5      c #9C9C92928C8C",
"6      c #C4C4BEBEBCBC",
"7      c #94948E8E8C8C",
"8      c #CCCCC6C6C4C4",
"9      c #84847E7E7C7C",
"0      c #D4D4D2D2CCCC",
"q      c #BCBCBABAB4B4",
"w      c #A4A4A6A6A4A4",
"e      c #B4B4BABAB4B4",
"r      c #BCBCB6B6BCBC",
"t      c #BCBCBEBEC4C4",
"y      c #949496969494",
"u      c #BCBCB6B6B4B4",
"i      c #6C6C66666464",
"p      c #6C6C6A6A6464",
"a      c #D4D4CACAC4C4",
"s      c #7C7C76766C6C",
"d      c #ACACA2A2A4A4",
"f      c #CCCCCACAC4C4",
"g      c #8C8C86867C7C",
"h      c #646462626464",
"j      c #E4E4E2E2DCDC",
"k      c #ACACAEAEB4B4",
"l      c #A4A49A9A9494",
"z      c #ACACA6A69C9C",
"x      c #8C8C8A8A8484",
"c      c #CCCCC6C6BCBC",
"v      c #74746E6E6C6C",
"b      c #6C6C66665C5C",
"n      c #8C8C82827C7C",
"m      c #74746A6A6464",
"M      c #BCBCB2B2ACAC",
"N      c #7C7C76767474",
"B      c #74747A7A7474",
"V      c #949492928C8C",
"C      c #C4C4BABAB4B4",
"Z      c #7C7C72726C6C",
"A      c #84847A7A7474",
"S      c #94948A8A8484",
"D      c #CCCCCECECCCC",
"F      c #A4A4A2A2A4A4",
"G      c #ACACAEAEACAC",
"H      c #74746A6A5C5C",
"J      c #6C6C62625C5C",
"K      c #84847E7E7474",
"L      c #8C8C7E7E7474",
"P      c #7C7C7E7E7C7C",
"I      c #8C8C8A8A8C8C",
"U      c #CCCCCECED4D4",
"Y      c #84848A8A7C7C",
"T      c #A4A49E9EA4A4",
"R      c #C4C4BEBEC4C4",
"E      c #747466666464",
"W      c #94948E8E8484",
"Q      c #74746E6E6464",
"!      c #84847A7A6C6C",
"~      c #7C7C7A7A7474",
"^      c #848482828484",
"/      c #848486868484",
"(      c #6C6C6A6A6C6C",
")      c #CCCCCACACCCC",
"_      c #C4C4C6C6C4C4",
"`      c #BCBCC2C2BCBC",
"'      c #848476766C6C",
"]      c #B4B4B6B6ACAC",
"[      c #ACAC9E9E9C9C",
"{      c #64645A5A5454",
"}      c #9C9C8E8E8C8C",
"|      c #BCBCB6B6ACAC",
" .     c #A4A49E9E9494",
"..     c #848482827474",
"X.     c #8C8C8E8E8C8C",
"o.     c #8C8C8E8E8484",
"O.     c #64645E5E6464",
"+.     c #8C8C7E7E7C7C",
"@.     c #6C6C5E5E6464",
"#.     c #646456565C5C",
"$.     c #BCBCB2B2B4B4",
"%.     c #CCCCCECEC4C4",
"&.     c #8C8C92928484",
"*.     c #848486867C7C",
"=.     c #949496968C8C",
"-.     c #8C8C8E8E7C7C",
";.     c #6C6C72726464",
":.     c #C4C4C2C2BCBC",
">.     c #74746E6E7474",
",.     c #A4A49A9A9C9C",
"<.     c #A4A4A6A69C9C",
"1.     c #BCBCC2C2B4B4",
"2.     c #C4C4C2C2B4B4",
"3.     c #C4C4C6C6BCBC",
"4.     c #ACACB2B2A4A4",
"5.     c #949496968484",
"6.     c #949492927C7C",
"7.     c #94949A9A8484",
"8.     c #848486867474",
"9.     c #7C7C7A7A6C6C",
"0.     c #949492928484",
"q.     c #BCBCBEBEB4B4",
"w.     c #A4A4A2A29494",
"e.     c #848476767C7C",
"r.     c #64645A5A6464",
"t.     c #A4A49A9AA4A4",
"y.     c #DCDCD6D6CCCC",
"u.     c #BCBCBABAACAC",
"i.     c #CCCCD2D2C4C4",
"p.     c #A4A4AAAA9C9C",
"a.     c #8C8C92927C7C",
"s.     c #8C8C8A8A7C7C",
"d.     c #9C9C9E9E8C8C",
"f.     c #9C9C9E9E9494",
"g.     c #A4A4A6A69494",
"h.     c #DCDCDEDEDCDC",
"j.     c #ACACAEAE9C9C",
"k.     c #ACACA6A6ACAC",
"l.     c #9C9C92929494",
"z.     c #747472726464",
"x.     c #747472726C6C",
"c.     c #74746A6A6C6C",
"v.     c #8C8C82828484",
"b.     c #ACACAAAA9C9C",
"n.     c #9C9C9A9A8C8C",
"m.     c #8C8C92927474",
"M.     c #84848A8A7474",
"N.     c #7C7C82827474",
"B.     c #ACACAEAEA4A4",
"V.     c #848482827C7C",
"C.     c #6C6C6A6A5C5C",
"Z.     c #6C6C62626464",
"A.     c #B4B4AEAEA4A4",
"S.     c #7C7C82826C6C",
"D.     c #8C8C8E8E7474",
"F.     c #8C8C86867474",
"G.     c #9C9CA2A29494",
"H.     c #ACACA2A2ACAC",
"J.     c #7C7C6E6E6C6C",
"K.     c #D4D4CECEC4C4",
"L.     c #7C7C7E7E6C6C",
"P.     c #8C8C8A8A7474",
"I.     c #848486866C6C",
"U.     c #64646A6A5454",
"Y.     c #BCBCBEBEACAC",
"T.     c #D4D4D6D6D4D4",
"R.     c #7C7C72726464",
"E.     c #CCCCC2C2BCBC",
"W.     c #7C7C76766464",
"Q.     c #747476765C5C",
"!.     c #D4D4D6D6CCCC",
"~.     c #E4E4DADACCCC",
"^.     c #CCCCCACABCBC",
"/.     c #B4B4AAAA9C9C",
"(.     c #C4C4C2C2ACAC",
").     c #D4D4DADACCCC",
"_.     c #747476766C6C",
"`.     c #ACACA2A29494",
"'.     c #94948E8E7C7C",
"].     c #B4B4BABAACAC",
"[.     c #94948A8A7474",
"{.     c #9C9C96968484",
"}.     c #7C7C7E7E7474",
"|.     c #6C6C6E6E6464",
" X     c #9C9CA2A29C9C",
".X     c #BCBCB2B2BCBC",
"XX     c #8C8C82826C6C",
"oX     c #84847E7E6464",
"OX     c #84847A7A7C7C",
"+X     c #84847E7E6C6C",
"@X     c #6C6C66665454",
"#X     c #9C9C96968C8C",
"$X     c #CCCCD2D2CCCC",
"%X     c #747476767474",
"&X     c #7C7C82827C7C",
"*X     c #8C8C82827474",
"=X     c #C4C4C2C2CCCC",
"-X     c #C4C4CACAC4C4",
";X     c #D4D4D2D2D4D4",
":X     c #C4C4BABABCBC",
">X     c #ACACA2A29C9C",
",X     c #CCCCCACAD4D4",
"<X     c #CCCCC6C6CCCC",
"1X     c #A4A4AAAAA4A4",
"2X     c #D4D4CECECCCC",
"3X     c #C4C4C6C6CCCC",
"4X     c #DCDCDADADCDC",
"5X     c #747472727474",
"6X     c #8C8C92928C8C",
"7X     c #D4D4D6D6DCDC",
"8X     c #646466666464",
"9X     c #D4D4DADAD4D4",
"0X     c #7C7C7A7A7C7C",
"qX     c #BCBCBABAC4C4",
"wX     c #DCDCD6D6DCDC",
"  .     X o O O o + @ # # $ % & % & * = * = - ; : > > , < < > : 1 ",
"2 3   + + # + o 4 5 * 6 7 4 8 % 9 o 0 q 7 % w = e : r , - t - e , ",
"  X y y   y $ $ u o u q i p a o s d f g h $ j = = > < < k , : , , ",
"y y y 3 o + l z * x 4 c v b u n m l M N s 0 1 B 7 < , > > > > , < ",
"V 2 y + w = > C * v g z Z Z g s p A x N S f 9 h w D = = > ; > < < ",
"2 2   F = G z M $ H b A J Z v A A A K L n 7 P I U 1 Y T < : , t R ",
"  + + F w % E s W Z E Q J Z J b Q Z N A ! ~ ^ o : / ( F ) _ < 1 ` ",
"F F w w = = ~ J A s J J J Q m J H ' s Z ' N 9 / P ( / e < R < 1 1 ",
"+ w = - : ] [ E J E { E ! } M * | C z  .5 ..X.o.^ o.1 D o o ` 1 _ ",
"3   V K Q v O.+.@.#.v W $.4 % 6 q | - ] %.c &.*.Y =.-.;.;.*.> :.%.",
"; u -  ...m >.E #.N ,.d $.$ - - <.4 1.2.3.4.5.6.7.5.8.9.0.q.q.%.0 ",
"T 4 8 8 w.Z e.r.@.t.r ; q $.y.8 u.3.i.q.p.-.a.s.7.d.f.g.q.h.j.1.%.",
"k.l.9 z.x.s c.@.v.& * & 8 :.- b.g.j.j.n.m.M.7.M.&.5.n.. N.9.=.B._ ",
"k.,.V.C.b z.Z.c.t.& @ u 8 A.W ..S.8.D.M.m.7.F.s.G.n.=.&.z.C.. ] %.",
"H.q 8 - x Q i J.[ & M K.q ..F.L.8.P.D.a.I.S.U.Y Y.p.=.z 4.i.G 8 T.",
": 4 @ g s R.v J.$ E.E.c  .W.z.L.5.6.M.M.Q.;...G.%.g.*.o f.q + q.!.",
"3 9 p Q ~ ..R.R.| ~.^./.8.s.F.w.(.g.I.L.S.a.u.2.).b.=.G.~ x._.+ _ ",
"F d $ w.s.R.s `.(./.'.....9.L.0.G.5...N.d.].1.i.!.<.V o Y   < 0 D ",
": 8 8 A.o.! F.[.S P.[.{.6.s...W 0.}.|._.f.3.B.3.3.w G.w  XG - D U ",
".X$ S ~ s ! P.XXoXXXP.F.9.R.8.~ x._.*.# < D %.!.q <.@ o.x V   < ) ",
"= OXp K 0.F.+XXXP.F.R.@XC.z.#Xs./ O > D $X_ !.0 w . V %X&X/   , ) ",
"[   : K.] *X+XF.F.W.H s #X% | u :.1 1 1 =X-Xf _ o + % + u -X, U ;X",
"k.:X8 - s.Q *XL A K 0./.:.f 6 1 R < t 1 D ;X, ] =.V +   = _ ) T.U ",
"; , # Z Q *X5 g *X} >X- q 6 :., u t ) $X,X1 <.+ X.&XV.^ P X ) ) <X",
"$.6 $ V # f z W V.S X.S >X3.8 0 j j T., 1X+ + + B.F G < G D 2XU 3X",
"k : q < :.3._.s 0.&.s.=.o.=.=.&.f.<.. =.# <. Xx.= F / :.4XT.;X;XT.",
"q , > 4.= % |.. ] =.-.G.d.f.n.w.<.j.B.<.d.f.w 5X  6X5X= _ ) T.;X7X",
"> , > : k.w f.f 1.}...w =.-.. f.V =.b.=.}.=.% / , _ G ) ;XD ;X$X7X",
"k > , , e q < 3.o 8Xy 2.X.x.> # P 6X] X.~ > . ^ R h.D 4X;X_ 7X;Xy.",
"> : > , t 1 > q # X.:.1 P i -Xy v y 6 I P 2X= y > ) _ D ;X0 T.T.9X",
"> > : , < 1 t 1 3X, 3X> X.X 1 2 0X= -XX I $XT.1 ) ;X0 7Xh.7X4X;X4X",
"> : > , < 1 , 1 ,X< r t qX;XU : k ,XwX_ R 7XU ;X$X7XT.4X4X_ 4XT.9X",
"> r > > > > 1 t ,X, t wXU 1 3X=X) U ,X7X9X<XU T.D 2X;Xh.h.0 7XT.4X"};
