/* XPM */
static char * view_xpm[] = {
"33 33 54 1",
". c #808080",
"3 c #888888",
"a c #909090",
"b c #909098",
"c c #98a0a0",
"d c #a8a8a8",
"e c #b0b0b8",
"f c #c0c0c8",
"g c #c8c8c8",
"h c #d8dce0",
"i c #b8b8b8",
"j c #a0a0a8",
"k c #585458",
"l c #303030",
"m c #101010",
"n c #301010",
"o c #585858",
"p c #b0b0b0",
"q c #b8bcc0",
"r c #505050",
"s c #202018",
"t c #404040",
"u c #484c58",
"v c #381c40",
"w c #483c28",
"x c #c0c0c0",
"y c #383838",
"z c #080808",
"A c #606470",
"B c #888088",
"C c #808890",
"D c #787878",
"E c #606468",
"F c #606060",
"G c #d0d0d0",
"H c #605860",
"I c #101408",
"J c #687070",
"K c #383c20",
"L c #686868",
"M c #707078",
"N c #080c08",
"O c #788078",
"P c #787020",
"Q c #c8d0c8",
"R c #384048",
"S c #484848",
"T c #000000",
"U c #383c40",
"V c #b8c0c8",
"W c #601450",
"X c #601810",
"Y c #f8f8f8",
"Z c #d8a428",
/* pixels */
".3.33333a3aaaaabaacaccbcbccccccdd",
"333333abefggghgidcbbcacccccccdddd",
".33333ifjklmmmnopiccbccccccddcddd",
"3333aqfrmstuorvsmwxcccccccccddddd",
"333aqeyzrAABbjbCwzlpccccccddddddp",
"333efyzDEjxxiipixbzliccccdcddddpd",
"33cfrzDFGhhhxabaacezypccddddddpdp",
"3aepmrFihhhG3..D..dFmHddcdddddpdp",
"a3xoIABGhhhDJJJAAJJqIK3ddddddpdpp",
"aagntAdhhhpLLLLLLLActsMcddddpdppp",
"3agNrM3hGh3LJOD...DcLmFcddpdppppp",
"aahmuMPhhGpO.abbcbbd3mucddppppppp",
"aCGNtJLGGhh3cdppiipxMmkcdpddpppip",
"aafnlELxhhhxpixggxxgrsubddppppppi",
"aapuIELbhhhhGgggggGhsyocdpppppiii",
"babdzyJPGhhGgggggQGAmRLbdppppipii",
"aa3pSzM3phggggggghgzyuMcdppipiiii",
"baaDelzpxxgggggGGgzTuF3cppppiiiii",
"aba3DjnzAGgGgGGhAzTlEoacppiiiiiii",
"ccaa.OdlmIu.b.usmUuTVCodpipiiiiii",
"acbbaOObEUsmmmntuuEuTfoWpiiiiiiix",
"cbccbB.D.3MFouoFAMOJToXYWpiiiixxi",
"bccccbaDO..3a33.DOMJJTXZYWiiixixx",
"ccccccbaBOOOO.OD..3DJJTXZYWixixxx",
"cccccddcbaBB...3abbb.OPTXZYWixixx",
"ccccccdcdcccbbcccdppb.MMTXZYWxxxx",
"cccddddddddddpdpppppdc.OPTXZYWxxg",
"cccdcdddddpdpppppiipidc.OOTXZZzxx",
"cdcddddddpdpppppppiiippcBOOTXzsxx",
"dcddddddpdpppppiiiiiiiipcBOOzsFix",
"cddddddpppppppipiiiiixiipdB.O.big",
"ddddddpdpppppipiiiiixixixpd3.3bix",
"cddddpdppppipiiiiiixixxxxxidbbpxg"};
